HIERARCHY
ROOT Hips
{
  OFFSET 13.6774 106.653 -34.4427
  CHANNELS 6 Xposition Yposition Zposition Zrotation Xrotation Yrotation
  JOINT ToSpine
  {
    OFFSET -2.69724 7.43032 -0.144315
    CHANNELS 3 Zrotation Xrotation Yrotation
    JOINT Spine
    {
      OFFSET -0.0310711 10.7595 1.96963
      CHANNELS 3 Zrotation Xrotation Yrotation
      JOINT Spine1
      {
        OFFSET 19.9056 3.91189 0.764692
        CHANNELS 3 Zrotation Xrotation Yrotation
        JOINT Neck
        {
          OFFSET 25.9749 7.03908 -0.130764
          CHANNELS 3 Zrotation Xrotation Yrotation
          JOINT Head
          {
            OFFSET 9.52751 0.295786 -0.907742
            CHANNELS 3 Zrotation Xrotation Yrotation
            End Site
            {
              OFFSET 16.4037 0.713936 2.7358
            }
          }
        }
        JOINT LeftShoulder
        {
          OFFSET 17.7449 4.33886 11.7777
          CHANNELS 3 Zrotation Xrotation Yrotation
          JOINT LeftArm
          {
            OFFSET 0.911315 1.27913 9.80584
            CHANNELS 3 Zrotation Xrotation Yrotation
            JOINT LeftForeArm
            {
              OFFSET 28.6126 1.18197 -3.53199
              CHANNELS 3 Zrotation Xrotation Yrotation
              JOINT LeftHand
              {
                OFFSET 27.5088 0.0218783 0.327423
                CHANNELS 3 Zrotation Xrotation Yrotation
                End Site
                {
                  OFFSET 18.6038 -0.000155887 0.382096
                }
              }
            }
          }
        }
        JOINT RightShoulder
        {
          OFFSET 17.1009 2.89543 -12.2328
          CHANNELS 3 Zrotation Xrotation Yrotation
          JOINT RightArm
          {
            OFFSET 1.4228 0.178766 -10.211
            CHANNELS 3 Zrotation Xrotation Yrotation
            JOINT RightForeArm
            {
              OFFSET 28.733 1.87905 2.64907
              CHANNELS 3 Zrotation Xrotation Yrotation
              JOINT RightHand
              {
                OFFSET 27.4588 0.290562 -0.101845
                CHANNELS 3 Zrotation Xrotation Yrotation
                End Site
                {
                  OFFSET 17.8396 -0.255518 -0.000602873
                }
              }
            }
          }
        }
      }
    }
  }
  JOINT LeftUpLeg
  {
    OFFSET -5.61296 -2.22332 -10.2353
    CHANNELS 3 Zrotation Xrotation Yrotation
    JOINT LeftLeg
    {
      OFFSET 2.56703 -44.7417 -7.93097
      CHANNELS 3 Zrotation Xrotation Yrotation
      JOINT LeftFoot
      {
        OFFSET 3.16933 -46.5642 -3.96578
        CHANNELS 3 Zrotation Xrotation Yrotation
        JOINT LeftToeBase
        {
          OFFSET 0.346054 -6.02161 12.8035
          CHANNELS 3 Zrotation Xrotation Yrotation
          End Site
          {
            OFFSET 0.134235 -1.35082 5.13018
          }
        }
      }
    }
  }
  JOINT RightUpLeg
  {
    OFFSET -5.7928 -1.72406 10.6446
    CHANNELS 3 Zrotation Xrotation Yrotation
    JOINT RightLeg
    {
      OFFSET -2.57161 -44.7178 -7.85259
      CHANNELS 3 Zrotation Xrotation Yrotation
      JOINT RightFoot
      {
        OFFSET -3.10148 -46.5936 -4.03391
        CHANNELS 3 Zrotation Xrotation Yrotation
        JOINT RightToeBase
        {
          OFFSET -0.0828122 -6.13587 12.8035
          CHANNELS 3 Zrotation Xrotation Yrotation
          End Site
          {
            OFFSET -0.131328 -1.35082 5.13018
          }
        }
      }
    }
  }
}
MOTION
Frames: 17
Frame Time: 0.03333333333333333
0.0000 93.1000 0.0000 -66.6577 -15.7584 128.9863 -71.0532 -0.6380 87.5394 116.7993 61.1642 -36.2246 -10.4060 20.8847 -16.1517 -152.1557 -3.0303 -150.4413 -150.7730 32.8140 -171.8421 0.6431 -7.9557 -27.0784 -102.2501 20.1969 -73.0661 -3.0923 -0.0303 -108.0820 -0.0634 0.4645 -0.0311 -2.5721 7.9454 39.1076 -66.9896 -33.2400 73.2643 10.9204 -5.5140 65.0510 -0.3567 -0.4510 -0.2442 -23.8847 45.4939 71.1483 -22.9463 77.3151 -2.1771 -7.2865 -21.2198 -2.0556 10.3303 -21.0150 14.0302 -22.6362 -28.3283 121.9761 1.0591 39.0739 -3.9419 -6.1835 -14.3877 0.7254 3.3965 -4.5283 -25.0577 
0.0000 93.1000 0.0000 -68.7474 -20.7712 133.9020 -70.8842 -0.7596 87.7306 122.2969 60.1089 -39.3597 -10.8132 22.0020 -16.3750 -151.0630 -0.6675 -149.0429 -153.8865 35.4491 -170.9899 0.5531 -8.8361 -28.8006 -101.4609 24.6374 -71.8947 -1.9966 -0.1012 -110.1731 0.2104 0.3275 0.1039 -3.0887 8.9076 41.9838 -62.0536 -37.1906 90.9513 13.6999 -8.5238 61.5422 0.5074 -0.3042 -0.1331 -9.2498 41.9796 66.7996 -147.3688 77.6547 123.0963 -5.2545 -19.1627 -2.3613 15.4978 -29.0460 21.1267 -21.9874 -30.9127 107.4443 0.8958 38.7966 -0.0102 -7.9631 -13.8585 0.5778 2.8477 -8.0874 -29.2306 
0.0000 93.1000 0.0000 -70.9080 -26.8743 138.0241 -71.0799 0.2056 87.7505 126.3293 61.7898 -44.3476 -11.7966 24.0611 -14.8507 -149.9903 2.5655 -148.9387 -156.0657 39.6061 -168.7006 1.0871 -9.7881 -30.7258 -98.8512 29.3268 -74.7867 1.9779 -2.1159 -112.3315 0.1433 -0.1454 -0.3105 -2.8084 9.2615 43.8011 -59.1278 -38.4413 106.2595 17.0012 -11.8579 58.6479 0.1982 0.2218 -0.0454 -4.2205 39.6274 73.2605 -163.9471 63.9751 134.3253 -7.6877 -18.1653 -2.1790 16.4341 -29.0633 20.9583 -25.4754 -31.0302 101.7565 1.1731 39.0120 -5.3083 -9.6368 -15.4416 1.8117 2.9302 -5.6237 -27.7459 
0.0000 93.1000 0.0000 -72.7034 -36.6324 142.6246 -71.1933 1.3364 87.7286 129.1982 63.0363 -46.6627 -11.4316 25.6230 -13.0772 -146.0159 7.0236 -154.5550 -156.6687 42.9923 -170.9871 1.6614 -9.8654 -30.2896 -93.9885 32.9609 -79.8512 6.3735 -2.9609 -112.6215 0.2601 -0.4801 -0.5930 -2.3084 9.0996 44.7433 -59.2128 -37.1245 116.3732 20.6141 -13.1343 60.4922 -0.0191 0.6711 0.3855 -1.1051 35.4203 83.2183 -167.9497 50.4607 133.3208 -8.8635 -16.7772 -2.2157 17.2362 -29.4045 20.5256 -31.4959 -31.1765 93.1048 0.1736 38.2117 -8.2019 -9.5846 -18.0575 2.7968 4.9567 -1.9039 -30.8561 
0.0000 93.1000 0.0000 -76.9879 -48.0662 151.9905 -71.2268 0.9757 87.6685 130.2624 63.8682 -43.1487 -10.4207 25.4263 -11.4084 -142.8833 12.1781 -157.5770 -159.7272 47.7343 -168.7079 1.1262 -11.0498 -30.3836 -89.1816 34.7264 -88.7536 10.7529 -5.1774 -110.9648 0.4197 -0.5954 -0.5373 -2.6508 8.9830 43.1430 -62.7640 -34.8804 121.6189 24.6896 -12.6587 63.3132 -0.0435 0.8681 -0.1446 0.8909 27.7393 92.8379 -169.2563 43.4391 135.9738 -8.3765 -10.6741 -1.1204 16.3358 -28.4198 15.4896 -42.2209 -30.8428 76.0188 0.4802 32.8467 -9.2292 -7.2666 -19.2257 1.8710 4.8299 2.3468 -28.9476 
0.0000 93.1000 0.0000 -78.8824 -59.8726 160.5583 -71.0891 0.5645 87.9861 131.1661 65.8037 -42.4050 -10.6902 25.1152 -6.9618 -137.9533 17.0217 -162.7801 -163.9427 52.5530 -165.4353 0.6040 -12.0504 -29.1559 -84.1795 35.5666 -99.5058 11.3326 -4.9531 -108.2252 0.2328 -0.0318 -0.3940 -2.3753 8.8248 38.8345 -68.7401 -33.1696 122.6948 25.2567 -12.7101 65.7219 -0.0941 0.2783 0.0713 -7.3791 21.8452 101.1630 -167.8022 45.5619 138.7314 -11.4313 -2.7784 -0.2456 13.7842 -26.6352 12.2553 -52.2749 -27.3045 63.4661 1.0953 27.8679 -12.1372 -6.0466 -16.9275 1.7344 2.9465 -0.0236 -20.7903 
0.0000 93.1000 0.0000 -77.1784 -69.2779 169.0968 -71.0522 0.5751 88.2206 133.3663 67.1532 -43.8839 -11.0018 26.3086 -4.1685 -134.0805 20.8013 -168.5496 -167.1277 56.8697 -161.4460 0.3662 -12.8336 -28.1242 -80.3719 35.1871 -110.5911 13.7539 -4.1330 -103.8957 -0.6339 0.6448 0.2895 -1.7876 9.0392 35.7371 -73.4571 -27.6508 120.8392 20.9754 -9.5889 68.8297 0.1686 -0.2675 0.7865 -20.1407 20.0804 107.5775 -167.4515 53.8644 138.4345 -14.0908 5.1843 0.5341 11.0693 -25.9317 7.7631 -56.2334 -19.8193 67.7394 3.2752 24.3784 -13.1753 -7.3470 -13.1923 2.0345 1.6756 -6.1519 -16.1825 
0.0000 93.1000 0.0000 -65.9562 -77.6859 -174.4420 -71.2069 0.0219 87.7377 124.1177 71.8056 -35.6176 -7.9681 25.8700 -1.1924 -133.0750 23.2846 -171.7905 -173.1686 60.2231 -156.1479 -0.2467 -13.5678 -25.2006 -78.4584 34.7879 -121.0475 15.9066 -3.3025 -101.1073 -0.3330 1.1983 0.4693 -1.3942 8.8080 30.6896 -78.8535 -23.5515 121.2429 18.7295 -7.7683 70.6389 0.4052 -1.1808 0.5276 -30.9632 17.3882 109.4714 -164.6849 65.0910 137.0337 -14.9359 6.7349 0.7530 10.0875 -21.3592 3.4568 -56.4073 -12.8119 73.9195 2.6314 25.6893 -7.5486 -8.4048 -10.9455 1.9967 3.2418 -7.8250 -20.8397 
0.0000 93.1000 0.0000 -14.3637 -83.7953 -116.9946 -71.1641 -2.9272 87.8021 109.4434 72.7533 -21.2528 -6.2956 24.0955 -1.1743 -133.3728 24.7803 -177.0290 -177.5072 62.4888 -154.3426 -1.8147 -13.1058 -20.0926 -74.7636 34.9039 -133.2128 17.1955 -3.3889 -96.9670 0.4579 1.2730 0.1932 -3.3624 8.4192 26.1714 -85.0077 -19.6563 119.3317 15.7822 -6.3625 69.4045 -0.4673 -1.1105 -0.6212 -39.6784 14.4094 106.2399 -149.8195 76.5877 128.4508 -13.3657 6.6854 2.5471 9.0486 -21.3521 4.9028 -54.8000 -8.2104 74.8236 2.1235 26.9192 -9.1843 -8.6818 -13.7480 -0.6972 2.7869 -6.4582 -20.4507 
0.0000 93.1000 0.0000 56.7919 -77.4273 -40.8005 -70.9347 -0.5274 88.0151 104.7826 70.5180 -15.4235 -5.8244 21.1511 1.0086 -129.1328 26.1922 175.8741 -178.4686 64.7251 -153.5300 0.1654 -12.8668 -16.2151 -70.4794 32.9889 -143.1180 19.4715 -2.1091 -92.7620 0.0136 0.0349 -0.2188 -2.0147 7.9709 24.7283 -91.4236 -14.1339 117.9455 11.2554 -5.5006 67.7890 0.1858 0.2905 -0.0961 -46.8184 12.8509 100.5871 -53.4042 83.6559 43.6765 -13.0109 9.6774 2.5130 5.3165 -13.9146 1.6890 -51.1366 -6.9232 71.6001 4.2951 28.9648 -15.2405 -10.8997 -13.7847 1.1932 0.9647 -7.3321 -11.9366 
0.0000 93.1000 0.0000 67.7708 -65.0725 -25.5625 -70.9865 2.2245 87.9394 102.4917 69.8477 -14.9211 -5.3680 20.2279 2.7418 -127.3364 28.4865 170.1640 -177.1005 67.6329 -154.8611 2.8456 -14.2055 -13.9310 -67.4345 30.1322 -152.4288 17.6431 -0.1623 -89.8915 0.8101 -3.3307 -0.9967 -2.1545 6.9446 23.3300 -98.2943 -8.2244 115.0104 11.2363 -5.2993 66.4010 -1.0816 4.2343 -1.2368 -51.5183 13.3229 98.4345 -8.0744 71.1981 9.5444 -10.4812 8.4077 4.2724 1.4941 -3.4097 1.5966 -47.4523 -7.7702 69.5462 3.1346 32.7131 -9.6631 -6.4017 -13.4324 0.4794 0.8456 3.7156 -16.7994 
0.0000 93.1000 0.0000 68.8436 -54.2953 -21.3606 -70.7573 0.8375 88.1829 101.4576 68.3415 -15.2030 -6.2938 18.8812 2.5177 -130.4271 30.5185 167.7032 177.6735 70.6822 -150.9857 1.1644 -13.9637 -11.9726 -64.0821 28.1300 -159.2216 19.4332 0.1335 -88.9396 0.2429 -1.2678 0.0608 -1.8451 6.3483 22.0398 -107.1150 -4.0498 109.7600 8.8224 -4.7606 65.5841 0.3209 1.7009 -0.8587 -55.6807 13.7742 96.0301 -2.7655 56.7212 4.9822 -7.6272 5.4299 2.0907 2.4284 -5.2575 -0.2950 -42.6185 -9.3070 65.5992 -0.2061 36.7548 -9.5618 -3.6488 -14.1566 0.1876 1.1122 13.8646 -15.8252 
0.0000 93.1000 0.0000 69.1769 -44.8747 -17.4227 -70.8252 0.7673 88.2185 102.3515 67.6336 -14.9439 -6.9210 17.8094 3.2771 -130.9962 33.0187 163.1129 175.1551 73.8769 -149.2378 0.8953 -14.0706 -11.1143 -62.8469 26.0082 -163.2430 20.9608 0.9091 -90.1523 0.2373 -0.7707 -0.4003 -1.3466 5.5526 21.8481 -115.7774 0.1113 105.6545 7.2977 -3.8812 65.0936 0.2450 0.9367 -0.5077 -54.7138 13.1053 92.4949 -2.1482 47.0947 0.9912 -6.7626 0.3174 0.3883 5.5789 -16.0753 1.6199 -39.5991 -14.2674 61.5044 -1.2224 38.8304 -14.6691 -3.0337 -12.0213 0.6969 -1.7610 11.4536 -1.6342 
0.0000 93.1000 0.0000 66.7927 -36.2312 -15.0201 -71.0524 0.5834 88.2263 106.2209 68.4660 -19.0077 -8.2559 18.0988 4.7011 -130.2909 35.1253 159.7805 170.0943 76.8222 -145.7039 0.5301 -15.2937 -13.2704 -61.2623 23.1814 -165.1403 21.6965 -0.3910 -90.2492 0.1278 -0.6643 -0.4144 -1.3044 5.5872 21.9278 -124.5309 4.7316 101.5681 7.4958 -3.7295 65.2806 -0.0483 0.7295 -0.1278 -51.7401 12.0087 91.6141 -1.8730 42.0371 2.8032 -5.0221 -5.9399 -0.4241 5.3407 -10.4368 -5.4132 -36.0095 -16.9202 65.1752 0.3084 41.6705 -11.2675 -3.6491 -8.4980 0.3960 -0.9015 3.8399 -2.1050 
0.0000 93.1000 0.0000 65.9604 -32.1353 -16.4164 -71.0034 -0.0041 87.9852 106.2535 70.1259 -23.2383 -8.6498 18.9321 7.4254 -129.1987 36.5021 155.5050 162.6902 78.7646 -137.3455 -0.1998 -17.1736 -17.5052 -61.4071 21.2209 -163.2673 21.0824 -0.2193 -90.3689 0.1088 -0.2526 -0.1275 -1.4584 5.6432 24.5824 -134.3117 8.1437 100.9445 8.1153 -3.9267 66.4651 -0.3349 0.2964 -0.2107 -49.4359 11.1452 92.9483 -1.9288 38.8387 0.0780 -4.8410 -6.2702 -0.3060 5.2755 -13.0985 -0.6107 -33.2579 -16.9660 74.1109 0.9241 42.3921 -7.2688 -3.4959 -4.6368 -0.1933 1.0773 -1.6377 -8.5814 
0.0000 93.1000 0.0000 65.9914 -30.3471 -15.5065 -71.0788 0.1168 87.7396 109.2628 71.6902 -28.5068 -8.8008 18.9840 11.2394 -127.1919 37.9151 155.7819 146.7710 78.4213 -121.0194 -0.3678 -18.7642 -22.1187 -61.3134 20.2860 -158.2402 19.7078 -0.6353 -90.6915 0.1300 -0.3230 0.0178 -1.5282 5.5880 25.8509 -142.0571 8.5254 99.6692 8.2279 -3.9443 70.1740 -0.5385 0.4697 -0.1467 -48.0831 11.7145 93.9899 -1.5861 38.7401 -1.6193 -4.3157 -7.3479 -0.4363 5.6248 -13.2806 2.7104 -32.5797 -15.8683 82.3207 0.7961 42.0733 0.1871 -2.4540 -1.9630 -0.3455 1.7819 -6.5104 -14.6172 
0.0000 93.1000 0.0000 65.7982 -29.7741 -14.2660 -71.0815 0.1288 87.8114 108.2178 72.8708 -26.9360 -7.3797 19.8776 11.8607 -125.3658 38.7146 156.1071 140.6555 77.8981 -114.8318 -0.3871 -19.4930 -24.6347 -60.1527 21.1944 -155.1481 20.2601 -0.8371 -90.9729 0.2676 -0.4334 0.0947 -1.7776 5.7228 27.5099 -146.2993 6.2544 97.5519 10.4835 -3.2687 75.0650 -0.7016 0.6622 -0.6032 -48.9562 11.9100 93.9256 -3.0157 37.9261 -2.5253 -4.9584 -8.8275 -0.3760 6.0488 -14.2125 3.5386 -34.0025 -16.2723 82.8099 1.3782 41.8636 6.8873 -0.5335 -1.1036 -0.6951 1.6963 -11.4989 -15.8958 
